# xmcd
#
# Track frame offsets:
#	150
#	12264
#	29985
#	40935
#	54598
#	66736
#	74699
#	85595
#	93878
#	105685
#	115228
#	126763
#	137594
#	150269
#	161168
#	172344
#
# Disc length: 2491 seconds
#
# Revision: 0
# Processed by: cddbd v1.5.2PL0 Copyright (c) Steve Scherf et al.
# Submitted via: dBpowerAMP V4.0
#
DISCID=e409b910
DTITLE=Various Artist - Country and Western Greatest Hits
DYEAR=1998
DGENRE=Country
TTITLE0=Oh Lonesome Me - The Tennessee Riders
TTITLE1=Banks Of The Ohio - The Mountain Cowboys
TTITLE2=On Top Of Old Smokey - The Tennessee Riders
TTITLE3=Gentle On My Mind - The Tennessee Riders
TTITLE4=East Virginia - The Mountain Cowboys
TTITLE5=Oh Susanna - The Mountain Cowboys
TTITLE6=Little Maggie - The Mountain Cowboys
TTITLE7=Red River Valley - The Tennessee Riders
TTITLE8=I Walk The Line - The Tennessee Riders
TTITLE9=Portland Town - The Mountain Cowboys
TTITLE10=Handsome Molly - The Mountain Cowboys
TTITLE11=Home Sweet Home - The Mountain Cowboys
TTITLE12=The Streets Of Laredo - The Tennessee Riders
TTITLE13=Columbia Stockade - The Mountain Cowboys
TTITLE14=Don't Lay Around - The Mountain Cowboys
TTITLE15=Take Me Home, Country Roads - The Tennessee Riders
EXTD=
EXTT0=
EXTT1=
EXTT2=
EXTT3=
EXTT4=
EXTT5=
EXTT6=
EXTT7=
EXTT8=
EXTT9=
EXTT10=
EXTT11=
EXTT12=
EXTT13=
EXTT14=
EXTT15=
PLAYORDER=
